<mxfile host="65bd71144e">
    <diagram id="-FaPuicVigdpxlwIqKRF" name="Page-1">
        <mxGraphModel dx="714" dy="503" grid="1" gridSize="10" guides="1" tooltips="1" connect="1" arrows="1" fold="1" page="1" pageScale="1" pageWidth="827" pageHeight="1169" math="0" shadow="0">
            <root>
                <mxCell id="0"/>
                <mxCell id="1" parent="0"/>
                <mxCell id="4" value="" style="edgeStyle=none;html=1;fontFamily=Courier New;fontSize=16;" edge="1" parent="1" source="2" target="3">
                    <mxGeometry relative="1" as="geometry"/>
                </mxCell>
                <mxCell id="2" value="INICIO" style="ellipse;whiteSpace=wrap;html=1;fillColor=#60a917;fontColor=#ffffff;strokeColor=#2D7600;fontFamily=Courier New;fontSize=16;fontStyle=1" vertex="1" parent="1">
                    <mxGeometry x="294" width="120" height="60" as="geometry"/>
                </mxCell>
                <mxCell id="6" value="" style="edgeStyle=none;html=1;fontFamily=Courier New;fontSize=16;" edge="1" parent="1" source="3" target="5">
                    <mxGeometry relative="1" as="geometry"/>
                </mxCell>
                <mxCell id="3" value="m = minutos" style="shape=parallelogram;perimeter=parallelogramPerimeter;whiteSpace=wrap;html=1;fixedSize=1;fillColor=#1ba1e2;fontColor=#ffffff;strokeColor=#006EAF;fontFamily=Courier New;fontSize=14;" vertex="1" parent="1">
                    <mxGeometry x="294" y="100" width="120" height="50" as="geometry"/>
                </mxCell>
                <mxCell id="8" value="" style="edgeStyle=none;html=1;fontFamily=Courier New;fontSize=16;" edge="1" parent="1" source="5" target="7">
                    <mxGeometry relative="1" as="geometry">
                        <Array as="points">
                            <mxPoint x="514" y="230"/>
                        </Array>
                    </mxGeometry>
                </mxCell>
                <mxCell id="10" value="" style="edgeStyle=none;html=1;fontFamily=Courier New;fontSize=16;" edge="1" parent="1" source="5" target="9">
                    <mxGeometry relative="1" as="geometry">
                        <Array as="points">
                            <mxPoint x="194" y="230"/>
                        </Array>
                    </mxGeometry>
                </mxCell>
                <mxCell id="5" value="m &amp;lt;= 3&amp;nbsp;" style="rhombus;whiteSpace=wrap;html=1;fillColor=#e3c800;fontColor=#000000;strokeColor=#B09500;fontFamily=Courier New;fontSize=14;fontStyle=1" vertex="1" parent="1">
                    <mxGeometry x="314" y="190" width="80" height="80" as="geometry"/>
                </mxCell>
                <mxCell id="12" style="edgeStyle=none;html=1;entryX=0.5;entryY=0;entryDx=0;entryDy=0;fontFamily=Courier New;fontSize=16;" edge="1" parent="1" source="7" target="11">
                    <mxGeometry relative="1" as="geometry">
                        <Array as="points">
                            <mxPoint x="514" y="400"/>
                            <mxPoint x="354" y="400"/>
                        </Array>
                    </mxGeometry>
                </mxCell>
                <mxCell id="7" value="precio = 300&amp;nbsp;" style="whiteSpace=wrap;html=1;fillColor=#0050ef;fontColor=#ffffff;strokeColor=#001DBC;fontFamily=Courier New;fontSize=16;" vertex="1" parent="1">
                    <mxGeometry x="454" y="300" width="120" height="60" as="geometry"/>
                </mxCell>
                <mxCell id="13" style="edgeStyle=none;html=1;entryX=0.5;entryY=0;entryDx=0;entryDy=0;fontFamily=Courier New;fontSize=16;" edge="1" parent="1" source="9" target="11">
                    <mxGeometry relative="1" as="geometry">
                        <Array as="points">
                            <mxPoint x="194" y="400"/>
                            <mxPoint x="354" y="400"/>
                        </Array>
                    </mxGeometry>
                </mxCell>
                <mxCell id="9" value="precio = 300 + ((m-3)*50)" style="whiteSpace=wrap;html=1;fillColor=#0050ef;fontColor=#ffffff;strokeColor=#001DBC;fontFamily=Courier New;fontSize=16;" vertex="1" parent="1">
                    <mxGeometry x="134" y="300" width="120" height="60" as="geometry"/>
                </mxCell>
                <mxCell id="11" value="FIN" style="ellipse;whiteSpace=wrap;html=1;fillColor=#e51400;fontColor=#ffffff;strokeColor=#B20000;fontFamily=Courier New;fontSize=16;fontStyle=1" vertex="1" parent="1">
                    <mxGeometry x="294" y="450" width="120" height="60" as="geometry"/>
                </mxCell>
                <mxCell id="14" value="True" style="text;html=1;align=center;verticalAlign=middle;resizable=0;points=[];autosize=1;strokeColor=none;fillColor=none;fontFamily=Courier New;fontSize=16;" vertex="1" parent="1">
                    <mxGeometry x="410" y="195" width="60" height="30" as="geometry"/>
                </mxCell>
                <mxCell id="15" value="False" style="text;html=1;align=center;verticalAlign=middle;resizable=0;points=[];autosize=1;strokeColor=none;fillColor=none;fontFamily=Courier New;fontSize=16;" vertex="1" parent="1">
                    <mxGeometry x="225" y="195" width="70" height="30" as="geometry"/>
                </mxCell>
            </root>
        </mxGraphModel>
    </diagram>
</mxfile>